<svg width="48" height="48" viewBox="0 0 48 48" fill="none" xmlns="http://www.w3.org/2000/svg">
<rect width="24" height="48" fill="#1A1919"/>
<path fill-rule="evenodd" clip-rule="evenodd" d="M20.3301 13.3911C19.8708 12.1002 18.8707 10.9666 17.4345 10.1103L17.4338 10.1092H17.4326C15.935 9.24287 14.0704 8.80328 11.8899 8.80328C10.2192 8.80328 8.78377 9.08308 7.50565 9.65958C6.25223 10.1981 5.25002 10.9771 4.52985 11.9717C3.7955 12.9869 3.35492 14.0266 3.22073 15.0617C3.07603 16.2243 3 17.85 3 19.7634V28.1477C3 31.0623 3.23352 33.1606 3.71246 34.5635C3.71246 34.5626 3.71176 34.5615 3.71088 34.5596C4.15724 35.9934 5.13283 37.1445 6.61188 37.9788C8.041 38.7872 9.88968 39.1967 12.1092 39.1967C14.2077 39.1967 16.031 38.7101 17.527 37.7539C18.9581 36.8117 19.9146 35.6797 20.3732 34.3898L20.3746 34.3866L20.3751 34.3836C20.79 33.0888 21 30.9313 21 27.9709V26.8679V26.674H20.8068H13.3831H13.1901V26.8679V30.4858C13.1901 32.0136 13.106 32.9978 12.9403 33.4135C12.8007 33.7663 12.534 33.909 12.0213 33.909C11.3453 33.909 11.1494 33.6354 11.0634 33.4244C10.9667 33.0988 10.8525 32.3703 10.8525 30.7506V17.3814C10.8525 16.0505 10.9292 15.0282 11.0634 14.5751C11.2086 14.2189 11.5374 14.0461 12.0654 14.0461C12.3881 14.0461 12.8007 14.123 12.9389 14.4936L12.9424 14.5026L12.9473 14.5118C13.058 14.7345 13.1901 15.3749 13.1901 17.1605V22.1465V22.3404H13.3831H20.8068H21V22.1465V19.4107C21 16.7109 20.7752 14.6846 20.3301 13.3911Z" fill="white"/>
<rect width="24" height="48" transform="translate(24)" fill="#F48220"/>
<path fill-rule="evenodd" clip-rule="evenodd" d="M34.0572 22.2495L35.6643 16.0131V28.487H32.4496L34.0572 22.2495ZM42.9007 28.4868V9.37321H33.2975L27 28.4868V33.4662H35.6643V38.6268H42.9007V33.4662H45V28.4868H42.9007Z" fill="#1A1919"/>
</svg>
