<svg width="141" height="48" viewBox="0 0 141 48" fill="none" xmlns="http://www.w3.org/2000/svg">
<rect width="24" height="48" fill="#1A1919"/>
<path fill-rule="evenodd" clip-rule="evenodd" d="M20.3301 13.3911C19.8708 12.1002 18.8707 10.9666 17.4345 10.1103L17.4338 10.1092H17.4326C15.935 9.24287 14.0704 8.80328 11.8899 8.80328C10.2192 8.80328 8.78377 9.08308 7.50565 9.65958C6.25223 10.1981 5.25002 10.9771 4.52985 11.9717C3.7955 12.9869 3.35492 14.0266 3.22073 15.0617C3.07603 16.2243 3 17.85 3 19.7634V28.1477C3 31.0623 3.23352 33.1606 3.71246 34.5635C3.71246 34.5626 3.71176 34.5615 3.71088 34.5596C4.15724 35.9934 5.13283 37.1445 6.61188 37.9788C8.041 38.7872 9.88968 39.1967 12.1092 39.1967C14.2077 39.1967 16.031 38.7101 17.527 37.7539C18.9581 36.8117 19.9146 35.6797 20.3732 34.3898L20.3746 34.3866L20.3751 34.3836C20.79 33.0888 21 30.9313 21 27.9709V26.8679V26.674H20.8068H13.3831H13.1901V26.8679V30.4858C13.1901 32.0136 13.106 32.9978 12.9403 33.4135C12.8007 33.7663 12.534 33.909 12.0213 33.909C11.3453 33.909 11.1494 33.6354 11.0634 33.4244C10.9667 33.0988 10.8525 32.3703 10.8525 30.7506V17.3814C10.8525 16.0505 10.9292 15.0282 11.0634 14.5751C11.2086 14.2189 11.5374 14.0461 12.0654 14.0461C12.3881 14.0461 12.8007 14.123 12.9389 14.4936L12.9424 14.5026L12.9473 14.5118C13.058 14.7345 13.1901 15.3749 13.1901 17.1605V22.1465V22.3404H13.3831H20.8068H21V22.1465V19.4107C21 16.7109 20.7752 14.6846 20.3301 13.3911Z" fill="white"/>
<rect width="24" height="48" transform="translate(24)" fill="#F48220"/>
<path fill-rule="evenodd" clip-rule="evenodd" d="M34.0572 22.2495L35.6643 16.0131V28.487H32.4496L34.0572 22.2495ZM42.9007 28.4868V9.3732H33.2975L27 28.4868V33.4662H35.6643V38.6268H42.9007V33.4662H45V28.4868H42.9007Z" fill="#1A1919"/>
<path d="M66.1 32V14.5H73.25C75.3167 14.5 76.95 15.0583 78.15 16.175C79.35 17.275 79.95 18.7333 79.95 20.55V20.6C79.95 22.55 79.2833 24.0667 77.95 25.15C76.6167 26.2167 74.925 26.75 72.875 26.75H69.95V32H66.1ZM69.95 23.325H73C73.9333 23.325 74.675 23.075 75.225 22.575C75.775 22.075 76.05 21.4417 76.05 20.675V20.625C76.05 19.775 75.775 19.125 75.225 18.675C74.675 18.2083 73.9083 17.975 72.925 17.975H69.95V23.325ZM94.0271 30.275C92.6438 31.625 90.9188 32.3 88.8521 32.3C86.7855 32.3 85.0605 31.6333 83.6771 30.3C82.3105 28.95 81.6271 27.3083 81.6271 25.375V25.325C81.6271 23.375 82.3188 21.725 83.7021 20.375C85.1021 19.025 86.8355 18.35 88.9021 18.35C90.9688 18.35 92.6855 19.025 94.0521 20.375C95.4355 21.7083 96.1271 23.3417 96.1271 25.275V25.325C96.1271 27.275 95.4271 28.925 94.0271 30.275ZM88.9021 29.025C89.9521 29.025 90.7938 28.675 91.4271 27.975C92.0605 27.275 92.3771 26.4083 92.3771 25.375V25.325C92.3771 24.3083 92.0438 23.4417 91.3771 22.725C90.7271 21.9917 89.8855 21.625 88.8521 21.625C87.8021 21.625 86.9605 21.975 86.3271 22.675C85.6938 23.375 85.3771 24.2417 85.3771 25.275V25.325C85.3771 26.3417 85.7021 27.2167 86.3521 27.95C87.0188 28.6667 87.8688 29.025 88.9021 29.025ZM98.8787 32V18.6H102.679V21.3C103.545 19.25 104.97 18.2667 106.954 18.35V22.325H106.754C105.454 22.325 104.445 22.725 103.729 23.525C103.029 24.3083 102.679 25.4833 102.679 27.05V32H98.8787ZM113.853 32.225C112.603 32.225 111.636 31.925 110.953 31.325C110.286 30.7083 109.953 29.6667 109.953 28.2V21.85H108.353V18.6H109.953V15.175H113.753V18.6H116.903V21.85H113.753V27.575C113.753 28.4417 114.161 28.875 114.978 28.875C115.645 28.875 116.27 28.7167 116.853 28.4V31.45C115.986 31.9667 114.986 32.225 113.853 32.225ZM123.504 32.25C122.187 32.25 121.087 31.8917 120.204 31.175C119.337 30.4417 118.904 29.4333 118.904 28.15V28.1C118.904 26.6833 119.387 25.6167 120.354 24.9C121.337 24.1833 122.654 23.825 124.304 23.825C125.421 23.825 126.512 24.0083 127.579 24.375V24.15C127.579 22.5167 126.621 21.7 124.704 21.7C123.554 21.7 122.321 21.9417 121.004 22.425L120.054 19.525C121.687 18.8083 123.421 18.45 125.254 18.45C127.271 18.45 128.779 18.95 129.779 19.95C130.746 20.9167 131.229 22.3417 131.229 24.225V32H127.554V30.55C126.537 31.6833 125.187 32.25 123.504 32.25ZM124.654 29.625C125.537 29.625 126.254 29.4083 126.804 28.975C127.354 28.525 127.629 27.9583 127.629 27.275V26.6C126.912 26.2667 126.104 26.1 125.204 26.1C124.387 26.1 123.746 26.2583 123.279 26.575C122.812 26.8917 122.579 27.35 122.579 27.95V28C122.579 28.5 122.771 28.9 123.154 29.2C123.537 29.4833 124.037 29.625 124.654 29.625ZM134.674 32V13.75H138.474V32H134.674Z" fill="#1A1919"/>
</svg>
