<svg width="12" height="14" viewBox="0 0 12 14" fill="none" xmlns="http://www.w3.org/2000/svg">
<rect y="2" width="12" height="12" rx="6" fill="#EE3A3A"/>
<path d="M6.60059 9.63184H5.40918L5.16016 4.86133H6.84961L6.60059 9.63184ZM5.14062 11.3018C5.14062 11.0283 5.21387 10.8216 5.36035 10.6816C5.50684 10.5417 5.72005 10.4717 6 10.4717C6.27018 10.4717 6.47852 10.5433 6.625 10.6865C6.77474 10.8298 6.84961 11.0348 6.84961 11.3018C6.84961 11.5589 6.77474 11.7624 6.625 11.9121C6.47526 12.0586 6.26693 12.1318 6 12.1318C5.72656 12.1318 5.51497 12.0602 5.36523 11.917C5.21549 11.7705 5.14062 11.5654 5.14062 11.3018Z" fill="white"/>
</svg>
