<svg width="40" height="35" viewBox="0 0 40 35" fill="none" xmlns="http://www.w3.org/2000/svg">
<path fill-rule="evenodd" clip-rule="evenodd" d="M8.84071 6.48387C11.0535 2.61365 15.2227 0 20 0C25.9973 0 31.027 4.10067 32.4457 9.66753C36.7195 10.3079 40 13.957 40 18.4127C40 23.3196 36.018 27.3016 31.1111 27.3016C30.5851 27.3016 30.1587 26.8752 30.1587 26.3492C30.1587 25.8232 30.5851 25.3968 31.1111 25.3968C34.9661 25.3968 38.0952 22.2677 38.0952 18.4127C38.0952 14.7323 35.2383 11.7416 31.6009 11.4898L30.8733 11.4394L30.7323 10.7239C29.7391 5.68515 25.3138 1.90476 20 1.90476C15.7821 1.90476 12.116 4.29747 10.2891 7.80502L10.0531 8.25812L9.54513 8.31212C5.24758 8.76901 1.90476 12.4117 1.90476 16.8254C1.90476 21.6187 5.33504 25.3968 10 25.3968C10.526 25.3968 10.9524 25.8232 10.9524 26.3492C10.9524 26.8752 10.526 27.3016 10 27.3016C4.15702 27.3016 0 22.54 0 16.8254C0 11.6029 3.82744 7.2641 8.84071 6.48387Z" fill="black"/>
<path d="M28.5715 22.2533V9.90485C28.5715 8.64249 27.5481 7.61914 26.2857 7.61914H14.6667C13.4043 7.61914 12.381 8.64249 12.381 9.90485V22.4763C12.381 23.7386 13.4043 24.762 14.6667 24.762H22.8572" stroke="#F48220" stroke-width="2.28571"/>
<line x1="16.2222" y1="12.1902" x2="22.9312" y2="12.1902" stroke="#9A0000" stroke-width="2.28571" stroke-linecap="round"/>
<line x1="16.2222" y1="15.9997" x2="24.7301" y2="15.9997" stroke="#9A0000" stroke-width="2.28571" stroke-linecap="round"/>
<line x1="16.2222" y1="19.8093" x2="20.2328" y2="19.8093" stroke="#9A0000" stroke-width="2.28571" stroke-linecap="round"/>
<g clip-path="url(#clip0_661_23965)">
<path d="M25.9242 30.732C25.7036 30.5114 25.8186 30.5736 25.2864 30.4311C25.045 30.3664 24.8327 30.242 24.6407 30.0929L23.4888 32.9174C23.3773 33.1908 23.5855 33.4879 23.8805 33.4767L25.2184 33.4257L26.1385 34.3977C26.3417 34.612 26.6981 34.5452 26.8096 34.2717L28.1312 31.0314C27.856 31.1847 27.5505 31.2746 27.2346 31.2746C26.7395 31.2746 26.2744 31.0819 25.9242 30.732ZM33.1778 32.9174L32.0259 30.0929C31.8339 30.2422 31.6216 30.3664 31.3802 30.4311C30.8452 30.5743 30.9625 30.5119 30.7424 30.732C30.3922 31.0819 29.9268 31.2746 29.4317 31.2746C29.1158 31.2746 28.8104 31.1845 28.5352 31.0314L29.8567 34.2717C29.9682 34.5452 30.3249 34.612 30.5278 34.3977L31.4482 33.4257L32.7861 33.4767C33.0811 33.4879 33.2893 33.1906 33.1778 32.9174ZM30.136 30.1574C30.524 29.7626 30.5684 29.7966 31.1209 29.6461C31.4736 29.5498 31.7494 29.2693 31.8438 28.9102C32.0337 28.1891 31.9845 28.2762 32.5027 27.7486C32.7609 27.4858 32.8617 27.1027 32.7673 26.7437C32.5776 26.0231 32.5773 26.1236 32.7673 25.4023C32.8617 25.0433 32.7609 24.6601 32.5027 24.3973C31.9845 23.8697 32.0337 23.9565 31.8438 23.2357C31.7494 22.8767 31.4736 22.5961 31.1209 22.4999C30.413 22.3066 30.4984 22.3572 29.9796 21.8293C29.7214 21.5665 29.3449 21.4637 28.9922 21.5599C28.2846 21.7529 28.3833 21.7531 27.6744 21.5599C27.3217 21.4637 26.9452 21.5663 26.687 21.8293C26.1688 22.3569 26.2541 22.3066 25.5459 22.4999C25.1932 22.5961 24.9175 22.8767 24.823 23.2357C24.6334 23.9565 24.6824 23.8697 24.1642 24.3973C23.9059 24.6601 23.8049 25.0433 23.8996 25.4023C24.0893 26.1224 24.0895 26.0218 23.8996 26.7434C23.8051 27.1024 23.9059 27.4856 24.1642 27.7486C24.6824 28.2762 24.6331 28.1891 24.823 28.9102C24.9175 29.2693 25.1932 29.5498 25.5459 29.6461C26.1142 29.8009 26.1566 29.7766 26.5306 30.1574C26.8665 30.4994 27.3898 30.5606 27.7935 30.3052C27.9549 30.2027 28.1422 30.1483 28.3334 30.1483C28.5247 30.1483 28.7119 30.2027 28.8734 30.3052C29.2768 30.5606 29.8001 30.4994 30.136 30.1574ZM25.938 25.9924C25.938 24.6459 27.0105 23.5543 28.3333 23.5543C29.6562 23.5543 30.7287 24.6459 30.7287 25.9924C30.7287 27.3388 29.6562 28.4304 28.3333 28.4304C27.0105 28.4304 25.938 27.3388 25.938 25.9924Z" fill="#9A0000"/>
</g>
<defs>
<clipPath id="clip0_661_23965">
<rect width="13" height="13" fill="white" transform="translate(21.8334 21.5244)"/>
</clipPath>
</defs>
</svg>
