<svg width="40" height="30" viewBox="0 0 40 30" fill="none" xmlns="http://www.w3.org/2000/svg">
<path fill-rule="evenodd" clip-rule="evenodd" d="M8.84071 6.48387C11.0535 2.61365 15.2227 0 20 0C25.9973 0 31.027 4.10067 32.4457 9.66753C36.7195 10.3079 40 13.957 40 18.4127C40 23.3196 36.018 27.3016 31.1111 27.3016C30.5851 27.3016 30.1587 26.8752 30.1587 26.3492C30.1587 25.8232 30.5851 25.3968 31.1111 25.3968C34.9661 25.3968 38.0952 22.2677 38.0952 18.4127C38.0952 14.7323 35.2383 11.7416 31.6009 11.4898L30.8733 11.4394L30.7323 10.7239C29.7391 5.68515 25.3138 1.90476 20 1.90476C15.7821 1.90476 12.116 4.29747 10.2891 7.80502L10.0531 8.25812L9.54513 8.31212C5.24758 8.76901 1.90476 12.4117 1.90476 16.8254C1.90476 21.6187 5.33504 25.3968 10 25.3968C10.526 25.3968 10.9524 25.8232 10.9524 26.3492C10.9524 26.8752 10.526 27.3016 10 27.3016C4.15702 27.3016 0 22.54 0 16.8254C0 11.6029 3.82744 7.2641 8.84071 6.48387Z" fill="black"/>
<path d="M25.2859 18.1221L26.2027 17.7291C26.0456 17.3624 25.6849 17.1246 25.2859 17.1246C24.8869 17.1246 24.5262 17.3624 24.3691 17.7291L25.2859 18.1221ZM20.6348 26.4424C20.4178 26.9488 20.6523 27.5352 21.1587 27.7522C21.6651 27.9692 22.2515 27.7347 22.4685 27.2283L20.6348 26.4424ZM28.1033 27.2283C28.3203 27.7347 28.9067 27.9692 29.4131 27.7522C29.9195 27.5352 30.154 26.9488 29.937 26.4424L28.1033 27.2283ZM27.6623 23.6669L28.5791 23.274L27.6623 23.6669ZM24.3691 17.7291L21.9927 23.274L23.8264 24.0598L26.2027 18.515L24.3691 17.7291ZM21.9927 23.274L20.6348 26.4424L22.4685 27.2283L23.8264 24.0598L21.9927 23.274ZM24.3691 18.515L26.7454 24.0598L28.5791 23.274L26.2027 17.7291L24.3691 18.515ZM26.7454 24.0598L28.1033 27.2283L29.937 26.4424L28.5791 23.274L26.7454 24.0598ZM22.9096 24.6644H27.6623V22.6694H22.9096V24.6644Z" fill="#F48220"/>
<path d="M29.0202 23.1018C32.1321 21.2346 32.7544 11.899 21.5516 11.899M21.5516 11.899L24.0411 8.78711M21.5516 11.899L24.0411 14.3885" stroke="#9A0000" stroke-width="1.995"/>
<path d="M11.0631 12.5212C7.95119 14.3884 7.32882 23.724 18.5316 23.724M18.5316 23.724L16.0421 26.8359M18.5316 23.724L16.0421 21.2345" stroke="#9A0000" stroke-width="1.995"/>
<path d="M11.5936 9.40913H15.3279M19.0622 9.40913H15.3279M15.3279 7.54199V9.40913" stroke="#F48220" stroke-width="1.995" stroke-linecap="round"/>
<path d="M17.8174 10.167C17.8174 12.0341 16.946 16.0173 13.4607 17.0131M13.1277 12.0341C14.3725 13.2789 16.7375 16.5152 18.7291 17.0131" stroke="#F48220" stroke-width="1.995" stroke-linecap="round"/>
</svg>
