<svg width="40" height="32" viewBox="0 0 40 32" fill="none" xmlns="http://www.w3.org/2000/svg">
<path fill-rule="evenodd" clip-rule="evenodd" d="M8.8407 7.39989C11.0534 3.52967 15.2227 0.916016 20 0.916016C25.9972 0.916016 31.027 5.01669 32.4457 10.5835C36.7195 11.2239 40 14.873 40 19.3287C40 24.2356 36.018 28.2176 31.1111 28.2176C30.5851 28.2176 30.1588 27.7912 30.1588 27.2652C30.1588 26.7392 30.5851 26.3129 31.1111 26.3129C34.9661 26.3129 38.0952 23.1837 38.0952 19.3287C38.0952 15.6484 35.2383 12.6576 31.6009 12.4058L30.8733 12.3554L30.7323 11.6399C29.7391 6.60117 25.3138 2.82078 20 2.82078C15.7821 2.82078 12.116 5.21348 10.2891 8.72103L10.0531 9.1741L9.54514 9.2281C5.24758 9.68505 1.90476 13.3277 1.90476 17.7414C1.90476 22.4694 5.74821 26.3129 10.4762 26.3129C11.0022 26.3129 11.4286 26.7392 11.4286 27.2652C11.4286 27.7912 11.0022 28.2176 10.4762 28.2176C4.69624 28.2176 0 23.5213 0 17.7414C0 12.519 3.82744 8.18012 8.8407 7.39989Z" fill="#29363D"/>
<path fill-rule="evenodd" clip-rule="evenodd" d="M13.1188 14.9483C14.6901 19.4443 17.0923 23.6094 20.2035 27.2246C23.3147 23.6094 25.7169 19.4443 27.2882 14.9483C22.607 14.061 17.8002 14.061 13.1188 14.9483ZM11.1412 12.7069C17.1055 11.3425 23.3016 11.3425 29.2659 12.7068L30.63 13.0189L30.2183 14.3561C28.4188 20.2001 25.3232 25.5688 21.1562 30.0585L20.2035 31.0849L19.251 30.0585C15.0839 25.5688 11.9883 20.2001 10.1889 14.3561L9.77722 13.0189L11.1412 12.7069Z" fill="#F48220"/>
<path d="M20.0698 19.7002C21.1057 19.7002 21.9454 18.8885 21.9454 17.8872C21.9454 16.8859 21.1057 16.0742 20.0698 16.0742C19.034 16.0742 18.1943 16.8859 18.1943 17.8872C18.1943 18.8885 19.034 19.7002 20.0698 19.7002Z" fill="#A92101"/>
<path d="M21.197 18.5765C21.197 17.9551 20.693 17.4512 20.0716 17.4512C19.4501 17.4512 18.9463 17.9551 18.9463 18.5765V21.4524C18.9463 22.0738 19.4501 22.5776 20.0716 22.5776C20.693 22.5776 21.197 22.0738 21.197 21.4524V18.5765Z" fill="#A92101"/>
</svg>
